<svg xmlns="http://www.w3.org/2000/svg" version="1.1" xmlns:xlink="http://www.w3.org/1999/xlink" xmlns:svgjs="http://svgjs.dev/svgjs" width="1000" height="219" viewBox="0 0 1000 219"><g transform="matrix(1,0,0,1,0.5089438275897464,0.468210954548681)"><svg viewBox="0 0 264 58" data-background-color="#398378" preserveAspectRatio="xMidYMid meet" height="219" width="1000" xmlns="http://www.w3.org/2000/svg" xmlns:xlink="http://www.w3.org/1999/xlink"><g id="tight-bounds" transform="matrix(1,0,0,1,-0.13436112279322288,-0.12400053736033101)"><svg viewBox="0 0 264.26872170076024 58.248" height="58.248" width="264.26872170076024"><g><svg viewBox="0 0 264.26872170076024 58.248" height="58.248" width="264.26872170076024"><g><svg viewBox="0 0 264.26872170076024 58.248" height="58.248" width="264.26872170076024"><g id="textblocktransform"><svg viewBox="0 0 264.26872170076024 58.248" height="58.248" width="264.26872170076024" id="textblock"><g><svg viewBox="0 0 264.26872170076024 58.248" height="58.248" width="264.26872170076024"><g><svg><g></g><g></g></svg></g><g><svg><g><svg></svg></g><g></g></svg></g><g id="text-0"><svg viewBox="0 0 264.26872170076024 58.248" height="58.248" width="264.26872170076024"><g transform="matrix(1,0,0,1,0,11.123999999999999)"><svg width="70.61612903225807" viewBox="1.9500000476837158 -35.5 70.60613250732422 36" height="36" data-palette-color="#ffffff"><path d="M7.8-13.95L3.4-13.95Q2.6-13.95 2.53-14.23 2.45-14.5 2.45-15.15L2.45-15.15 2.45-34.05Q2.45-34.15 2.5-34.58 2.55-35 3.15-35L3.15-35 7.7-35Q10.85-35 12.95-34.02 15.05-33.05 16.07-30.85 17.1-28.65 17.1-25L17.1-25Q17.1-21.8 16.32-19.68 15.55-17.55 14.25-16.3 12.95-15.05 11.3-14.5 9.65-13.95 7.8-13.95L7.8-13.95ZM1.95 0L1.95 0 1.95-34.1Q1.95-34.6 2.13-34.8 2.3-35 2.85-35L2.85-35 5.65-35Q6.3-35 6.4-34.55 6.5-34.1 6.5-34.1L6.5-34.1 6.5-0.9Q6.5-0.45 6.3-0.28 6.1-0.1 5.18-0.05 4.25 0 1.95 0ZM6.45-31L6.45-18.2 8.3-18.2Q9.5-18.2 10.3-18.88 11.1-19.55 11.55-21.15 12-22.75 12-25.5L12-25.5Q12-27.25 11.68-28.48 11.35-29.7 10.63-30.35 9.9-31 8.6-31L8.6-31 6.45-31ZM18.95 0.1L18.95 0.1Q18.55 0.1 17.72 0.05 16.9 0 16.1-0.1L16.1-0.1 24.85-34.3Q25-35.15 26.6-35.15L26.6-35.15Q27.2-35.15 27.77-35.1 28.35-35.05 28.75-34.95L28.75-34.95 37.5-0.8Q37.6-0.35 37.22-0.13 36.85 0.1 35.5 0.1L35.5 0.1Q35.05 0.1 34.37 0.08 33.7 0.05 32.8 0L32.8 0 28.45-19Q28.15-20.6 27.8-22.3 27.45-24 27.22-25.65 27-27.3 26.85-28.6L26.85-28.6Q26.75-27.3 26.47-25.65 26.2-24 25.9-22.3 25.6-20.6 25.25-19L25.25-19 21.1-0.8Q21-0.35 20.67-0.13 20.35 0.1 18.95 0.1ZM33.15-8.55L21.4-8.55 21.4-12.7 33.15-12.7 33.15-8.55ZM46.9 0.5L46.9 0.5Q45.4 0.5 44.1 0.13 42.8-0.25 41.77-1.23 40.75-2.2 40.05-4.05 39.35-5.9 38.97-8.88 38.6-11.85 38.6-16.15L38.6-16.15Q38.6-21.2 39.17-24.65 39.75-28.1 40.77-30.25 41.8-32.4 43.07-33.55 44.35-34.7 45.75-35.1 47.15-35.5 48.45-35.5L48.45-35.5Q50.45-35.5 51.45-35.08 52.45-34.65 52.82-34 53.2-33.35 53.2-32.7L53.2-32.7Q53.2-31.9 52.97-31.15 52.75-30.4 52.5-29.9L52.5-29.9Q52.25-30.15 51.8-30.38 51.35-30.6 50.75-30.8 50.15-31 49.45-31L49.45-31Q48.55-31 47.67-30.68 46.8-30.35 46-29.45 45.2-28.55 44.62-26.93 44.05-25.3 43.72-22.73 43.4-20.15 43.4-16.45L43.4-16.45Q43.4-12.8 43.72-10.48 44.05-8.15 44.62-6.88 45.2-5.6 46.07-5.1 46.95-4.6 48.05-4.6L48.05-4.6Q49.4-4.6 50.55-4.98 51.7-5.35 52.4-5.85L52.4-5.85Q52.65-5.3 52.85-4.6 53.05-3.9 53.05-3.15L53.05-3.15Q53.05-2.1 52.3-1.28 51.55-0.45 50.15 0.03 48.75 0.5 46.9 0.5ZM70.44 0.1L70.44 0.1Q69.64 0.1 68.84 0.05 68.04 0 67.19-0.05L67.19-0.05Q66.84-2.75 66.44-5.1 66.04-7.45 65.49-9.43 64.94-11.4 64.17-12.98 63.39-14.55 62.34-15.7L62.34-15.7Q61.74-16.35 60.99-16.75 60.24-17.15 59.49-17.25L59.49-17.25 59.49-18.05 67.59-34.7Q68.44-34.9 69.19-34.98 69.94-35.05 70.54-35.05L70.54-35.05Q73.04-35.05 72.44-33.8L72.44-33.8 65.19-19.95Q68.09-17.6 69.87-12.78 71.64-7.95 72.29-0.95L72.29-0.95Q72.34-0.4 71.99-0.15 71.64 0.1 70.44 0.1ZM55.84 0L55.84 0 55.84-34.1Q55.84-34.55 56.07-34.73 56.29-34.9 57.24-34.95 58.19-35 60.49-35L60.49-35 60.49-0.9Q60.49-0.45 60.32-0.28 60.14-0.1 59.17-0.05 58.19 0 55.84 0Z" opacity="1" transform="matrix(1,0,0,1,0,0)" fill="#ffffff" class="undefined-p-0"></path></svg></g><g><svg xmlns="http://www.w3.org/2000/svg" xmlns:xlink="http://www.w3.org/1999/xlink" version="1.1" x="84.36812903225807" y="0" viewBox="21.2624454498291 8.700000762939453 54.793067932128906 82.69999694824219" enable-background="new 0 0 100 100" xml:space="preserve" height="58.248" width="38.59234266850215" class="icon-s-0" data-fill-palette-color="accent" id="s-0"><path d="M63.3 17.1c0 4.7-3.8 8.4-8.4 8.4s-8.4-3.8-8.4-8.4 3.8-8.4 8.4-8.4S63.3 12.5 63.3 17.1zM41.9 27.9c0.5-1.7-0.6-4-2.8-4.1-1.2 0-3.7-0.1-5.6-0.1s-3.6 0.3-4.1 2l-8 22.1c-0.5 1.7 0.4 3.5 2.1 4l6.1 2.5c1.7 0.6 3.6-0.3 4.1-2L41.9 27.9zM74.4 47.3l-0.8-0.4V36.1h-3v9.3L64 42.3l-8.2-11.4c-1.3-2.6-3.7-4.6-7.6-4-3.6 0.5-4.9 4.5-5.8 8.9l-2.4 11.7c0 0 0 0 0 0l0 0L38 56.6c-0.1 0.4-0.1 0.7-0.1 1L35.8 68 23.5 83.5c-1.4 1.7-1.1 4.3 0.7 5.6 0.7 0.6 1.5 0.8 2.4 0.9 1.2 0 2.4-0.5 3.2-1.5l12.8-16.3c0.4-0.5 0.6-1 0.8-1.6l2-9.2 7.7 10.2 0.8 16c0.1 2.1 1.8 3.8 3.9 3.8 0.1 0 0.2 0 0.3 0 2.2-0.1 3.9-2 3.8-4.2L61 69.9c0-0.8-0.3-1.6-0.8-2.2L52.9 58l3.4-16.1 3.2 4.5c0.3 0.4 0.7 0.7 1.1 1l9.9 4.7v38.1h3V52.9c0.9-0.1 1.8-0.7 2.2-1.7C76.5 49.8 75.9 48 74.4 47.3z" fill="#ffffff" data-fill-palette-color="accent"></path></svg></g><g transform="matrix(1,0,0,1,136.71247170076023,11.123999999999999)"><svg width="127.55625" viewBox="0.45000001788139343 -35.5 127.54624938964844 36" height="36" data-palette-color="#ffffff"><path d="M7 0L7 0 7-34.4Q7-34.4 7.13-34.48 7.25-34.55 7.9-34.55L7.9-34.55 10.7-34.55Q11.35-34.55 11.45-34.48 11.55-34.4 11.55-34.4L11.55-34.4 11.55-0.85Q11.55-0.45 11.35-0.28 11.15-0.1 10.2-0.05 9.25 0 7 0ZM17.45-30.7L0.45-30.7 0.45-34.1Q0.45-35 1.3-35L1.3-35 18.3-35 18.3-31.6Q18.3-31.1 18.13-30.9 17.95-30.7 17.45-30.7L17.45-30.7ZM26.55-13.95L22.15-13.95Q21.35-13.95 21.27-14.23 21.2-14.5 21.2-15.15L21.2-15.15 21.2-34.05Q21.2-34.15 21.25-34.58 21.3-35 21.9-35L21.9-35 26.45-35Q29.6-35 31.7-34.02 33.8-33.05 34.82-30.85 35.85-28.65 35.85-25L35.85-25Q35.85-21.8 35.07-19.68 34.3-17.55 33-16.3 31.7-15.05 30.05-14.5 28.4-13.95 26.55-13.95L26.55-13.95ZM20.7 0L20.7 0 20.7-34.1Q20.7-34.1 20.8-34.55 20.9-35 21.6-35L21.6-35 24.4-35Q25.05-35 25.15-34.55 25.25-34.1 25.25-34.1L25.25-34.1 25.25-0.9Q25.25-0.45 25.05-0.28 24.85-0.1 23.9-0.05 22.95 0 20.7 0ZM34 0.1L34 0.1Q33.45 0.1 32.77 0.08 32.1 0.05 31.3 0L31.3 0Q31.1-4.35 30.37-7.25 29.65-10.15 28.77-11.83 27.9-13.5 27.27-14.23 26.65-14.95 26.65-14.95L26.65-14.95Q26.65-14.95 26.52-15.28 26.4-15.6 26.95-15.9L26.95-15.9 29.45-17.35Q30.15-17.35 30.4-16.85L30.4-16.85Q30.4-16.85 31.22-15.98 32.05-15.1 33.15-13.2 34.25-11.3 35.17-8.28 36.1-5.25 36.3-1L36.3-1Q36.35-0.35 36-0.13 35.65 0.1 34 0.1ZM25.2-31L25.2-18.2 27.05-18.2Q28.25-18.2 29.05-18.85 29.85-19.5 30.3-21.05 30.75-22.6 30.75-25.2L30.75-25.2Q30.75-27.1 30.42-28.4 30.1-29.7 29.37-30.35 28.65-31 27.35-31L27.35-31 25.2-31ZM40.3 0.1L40.3 0.1Q39.9 0.1 39.07 0.05 38.25 0 37.45-0.1L37.45-0.1 46.2-34.3Q46.35-35.15 47.95-35.15L47.95-35.15Q48.55-35.15 49.12-35.1 49.7-35.05 50.1-34.95L50.1-34.95 58.85-0.8Q58.95-0.35 58.57-0.13 58.2 0.1 56.85 0.1L56.85 0.1Q56.4 0.1 55.72 0.08 55.05 0.05 54.15 0L54.15 0 49.8-19Q49.5-20.6 49.15-22.3 48.8-24 48.57-25.65 48.35-27.3 48.2-28.6L48.2-28.6Q48.1-27.3 47.82-25.65 47.55-24 47.25-22.3 46.95-20.6 46.6-19L46.6-19 42.45-0.8Q42.35-0.35 42.02-0.13 41.7 0.1 40.3 0.1ZM54.5-8.55L42.75-8.55 42.75-12.7 54.5-12.7 54.5-8.55ZM68.24 0.5L68.24 0.5Q66.74 0.5 65.44 0.13 64.14-0.25 63.12-1.23 62.09-2.2 61.39-4.05 60.69-5.9 60.32-8.88 59.94-11.85 59.94-16.15L59.94-16.15Q59.94-21.2 60.52-24.65 61.09-28.1 62.12-30.25 63.14-32.4 64.42-33.55 65.69-34.7 67.09-35.1 68.49-35.5 69.79-35.5L69.79-35.5Q71.79-35.5 72.79-35.08 73.79-34.65 74.17-34 74.54-33.35 74.54-32.7L74.54-32.7Q74.54-31.9 74.32-31.15 74.09-30.4 73.84-29.9L73.84-29.9Q73.59-30.15 73.14-30.38 72.69-30.6 72.09-30.8 71.49-31 70.79-31L70.79-31Q69.89-31 69.02-30.68 68.14-30.35 67.34-29.45 66.54-28.55 65.97-26.93 65.39-25.3 65.07-22.73 64.74-20.15 64.74-16.45L64.74-16.45Q64.74-12.8 65.07-10.48 65.39-8.15 65.97-6.88 66.54-5.6 67.42-5.1 68.29-4.6 69.39-4.6L69.39-4.6Q70.74-4.6 71.89-4.98 73.04-5.35 73.74-5.85L73.74-5.85Q73.99-5.3 74.19-4.6 74.39-3.9 74.39-3.15L74.39-3.15Q74.39-2.1 73.64-1.28 72.89-0.45 71.49 0.03 70.09 0.5 68.24 0.5ZM91.79 0.1L91.79 0.1Q90.99 0.1 90.19 0.05 89.39 0 88.54-0.05L88.54-0.05Q88.19-2.75 87.79-5.1 87.39-7.45 86.84-9.43 86.29-11.4 85.52-12.98 84.74-14.55 83.69-15.7L83.69-15.7Q83.09-16.35 82.34-16.75 81.59-17.15 80.84-17.25L80.84-17.25 80.84-18.05 88.94-34.7Q89.79-34.9 90.54-34.98 91.29-35.05 91.89-35.05L91.89-35.05Q94.39-35.05 93.79-33.8L93.79-33.8 86.54-19.95Q89.44-17.6 91.22-12.78 92.99-7.95 93.64-0.95L93.64-0.95Q93.69-0.4 93.34-0.15 92.99 0.1 91.79 0.1ZM77.19 0L77.19 0 77.19-34.1Q77.19-34.55 77.42-34.73 77.64-34.9 78.59-34.95 79.54-35 81.84-35L81.84-35 81.84-0.9Q81.84-0.45 81.67-0.28 81.49-0.1 80.52-0.05 79.54 0 77.19 0ZM108.54 0L96.79 0 96.79-34.1Q96.79-34.1 96.91-34.55 97.04-35 97.64-35L97.64-35 109.64-35Q109.64-33.15 109.61-32.3 109.59-31.45 109.41-31.18 109.24-30.9 108.79-30.9L108.79-30.9 101.34-30.9 101.34-4.1 109.39-4.1Q109.39-2.2 109.34-1.33 109.29-0.45 109.14-0.23 108.99 0 108.54 0L108.54 0ZM107.54-16.9L97.29-16.9 97.29-21.1 108.39-21.1Q108.39-18.5 108.29-17.7 108.19-16.9 107.54-16.9L107.54-16.9ZM118.24-13.95L113.84-13.95Q113.04-13.95 112.96-14.23 112.89-14.5 112.89-15.15L112.89-15.15 112.89-34.05Q112.89-34.15 112.94-34.58 112.99-35 113.59-35L113.59-35 118.14-35Q121.29-35 123.39-34.02 125.49-33.05 126.51-30.85 127.54-28.65 127.54-25L127.54-25Q127.54-21.8 126.76-19.68 125.99-17.55 124.69-16.3 123.39-15.05 121.74-14.5 120.09-13.95 118.24-13.95L118.24-13.95ZM112.39 0L112.39 0 112.39-34.1Q112.39-34.1 112.49-34.55 112.59-35 113.29-35L113.29-35 116.09-35Q116.74-35 116.84-34.55 116.94-34.1 116.94-34.1L116.94-34.1 116.94-0.9Q116.94-0.45 116.74-0.28 116.54-0.1 115.59-0.05 114.64 0 112.39 0ZM125.69 0.1L125.69 0.1Q125.14 0.1 124.46 0.08 123.79 0.05 122.99 0L122.99 0Q122.79-4.35 122.06-7.25 121.34-10.15 120.46-11.83 119.59-13.5 118.96-14.23 118.34-14.95 118.34-14.95L118.34-14.95Q118.34-14.95 118.21-15.28 118.09-15.6 118.64-15.9L118.64-15.9 121.14-17.35Q121.84-17.35 122.09-16.85L122.09-16.85Q122.09-16.85 122.91-15.98 123.74-15.1 124.84-13.2 125.94-11.3 126.86-8.28 127.79-5.25 127.99-1L127.99-1Q128.04-0.35 127.69-0.13 127.34 0.1 125.69 0.1ZM116.89-31L116.89-18.2 118.74-18.2Q119.94-18.2 120.74-18.85 121.54-19.5 121.99-21.05 122.44-22.6 122.44-25.2L122.44-25.2Q122.44-27.1 122.11-28.4 121.79-29.7 121.06-30.35 120.34-31 119.04-31L119.04-31 116.89-31Z" opacity="1" transform="matrix(1,0,0,1,0,0)" fill="#ffffff" class="undefined-p-1"></path></svg></g></svg></g></svg></g></svg></g></svg></g><g></g></svg></g><defs></defs></svg><rect width="264.26872170076024" height="58.248" fill="none" stroke="none" visibility="hidden"></rect></g></svg></g></svg>