<svg xmlns="http://www.w3.org/2000/svg" version="1.1" xmlns:xlink="http://www.w3.org/1999/xlink" xmlns:svgjs="http://svgjs.dev/svgjs" width="1000" height="900" viewBox="0 0 1000 1000"><rect width="1000" height="300" fill="#398378"></rect><g transform="matrix(0.7,0,0,0.7,149.57575776285216,399.19021423415523)"><svg viewBox="0 0 396 114" data-background-color="#398378" preserveAspectRatio="xMidYMid meet" height="287" width="1000" xmlns="http://www.w3.org/2000/svg" xmlns:xlink="http://www.w3.org/1999/xlink"><g id="tight-bounds" transform="matrix(1,0,0,1,0.24000010584211395,0.20415917026534203)"><svg viewBox="0 0 395.52 113.5916816594693" height="113.5916816594693" width="395.52"><g><svg viewBox="0 0 507.913696454687 145.87067889908255" height="113.5916816594693" width="395.52"><g><rect width="6.053811310714129" height="145.87067889908255" x="90.492211555716" y="0" fill="#ffffff" opacity="1" stroke-width="0" stroke="transparent" fill-opacity="1" class="rect-o-0" data-fill-palette-color="primary" rx="1%" id="o-0" data-palette-color="#ffffff"></rect></g><g transform="matrix(1,0,0,1,112.393696454687,0.36286238532109394)"><svg viewBox="0 0 395.52 145.14495412844036" height="145.14495412844036" width="395.52"><g id="textblocktransform"><svg viewBox="0 0 395.52 145.14495412844036" height="145.14495412844036" width="395.52" id="textblock"><g><svg viewBox="0 0 395.52 145.14495412844036" height="145.14495412844036" width="395.52"><g transform="matrix(1,0,0,1,0,0)"><svg width="395.52" viewBox="1.75 -36.599998474121094 218.00003051757812 77.00000762939453" height="145.14495412844036" data-palette-color="#ffffff"><svg></svg><svg></svg><g class="undefined-text-0" data-fill-palette-color="primary" id="text-0"><path xmlns="http://www.w3.org/2000/svg" d="M1.75 0h12.1v-3.95h-5.7v-11.65h5.45c3.4 0 6-0.893 7.8-2.68 1.8-1.78 2.7-4.187 2.7-7.22v0c0-1.7-0.4-3.15-1.2-4.35-0.8-1.2-1.8-2.183-3-2.95v0c-1.2-0.767-2.49-1.327-3.87-1.68-1.387-0.347-2.647-0.52-3.78-0.52v0h-10.5v3.95h2.25v27.1h-2.25zM8.15-19.6v-11.45h4.4c1.033 0 2.01 0.15 2.93 0.45 0.913 0.3 1.703 0.7 2.37 1.2v0c0.633 0.533 1.143 1.133 1.53 1.8 0.38 0.667 0.57 1.367 0.57 2.1v0c0 0.633-0.117 1.3-0.35 2-0.233 0.7-0.633 1.333-1.2 1.9v0c-0.567 0.567-1.323 1.04-2.27 1.42-0.953 0.387-2.163 0.58-3.63 0.58v0zM27.6 0h11.1v-3.95h-2.85c0.933-2.2 1.633-3.85 2.1-4.95 0.467-1.1 1.167-2.75 2.1-4.95v0h11c0.7 1.667 1.393 3.317 2.08 4.95 0.68 1.633 1.37 3.283 2.07 4.95v0h-2.8v3.95h11.1v-3.95h-4.1c-2.3-5.5-4.607-10.943-6.92-16.33-2.32-5.38-4.63-10.82-6.93-16.32v0c-2.3 5.5-4.607 10.94-6.92 16.32-2.32 5.387-4.63 10.83-6.93 16.33v0h-4.1zM45-25.75v0c0.033-0.1 0.093-0.267 0.18-0.5 0.08-0.233 0.187-0.617 0.32-1.15v0l0.5 1.65 3.35 7.95h-7.6c0.467-1.167 0.977-2.46 1.53-3.88 0.547-1.413 1.12-2.77 1.72-4.07zM93.95-2.1v0l-2.25-3.3c-1.033 0.6-2.127 1.057-3.28 1.37-1.147 0.32-2.337 0.48-3.57 0.48v0c-1.9 0-3.673-0.367-5.32-1.1-1.653-0.733-3.097-1.733-4.33-3v0c-1.267-1.233-2.26-2.7-2.98-4.4-0.713-1.7-1.07-3.5-1.07-5.4v0c0-1.9 0.357-3.7 1.07-5.4 0.72-1.7 1.713-3.2 2.98-4.5v0c1.233-1.267 2.677-2.267 4.33-3 1.647-0.733 3.42-1.1 5.32-1.1v0c0.9 0 1.783 0.09 2.65 0.27 0.867 0.187 1.717 0.463 2.55 0.83v0 3.05h3.95v-5.6c-1.367-0.8-2.81-1.417-4.33-1.85-1.513-0.433-3.12-0.65-4.82-0.65v0c-2.467 0-4.783 0.473-6.95 1.42-2.167 0.953-4.05 2.23-5.65 3.83v0c-1.633 1.633-2.917 3.54-3.85 5.72-0.933 2.187-1.4 4.513-1.4 6.98v0c0 2.467 0.467 4.783 1.4 6.95 0.933 2.167 2.217 4.05 3.85 5.65v0c1.6 1.633 3.483 2.917 5.65 3.85 2.167 0.933 4.483 1.4 6.95 1.4v0c1.7 0 3.307-0.227 4.82-0.68 1.52-0.447 2.947-1.053 4.28-1.82zM97.5 0h12.1v-3.95h-4.1v-11.25l3.1-2.95c1.867 2.4 3.723 4.773 5.57 7.12 1.853 2.353 3.73 4.713 5.63 7.08v0h-2.6v3.95h11.1v-3.95h-3.6c-2.233-2.833-4.457-5.643-6.67-8.43-2.22-2.78-4.447-5.587-6.68-8.42v0l10.75-10.25h4.15v-3.95h-11.1v3.95h1.85l-10.7 10.2-0.95 1.15c0.033-0.267 0.067-0.533 0.1-0.8 0.033-0.267 0.05-0.533 0.05-0.8v0-9.75h3.1v-3.95h-11.1v3.95h3.85v27.1h-3.85z" fill="#ffffff" fill-rule="nonzero" stroke="none" stroke-width="1" stroke-linecap="butt" stroke-linejoin="miter" stroke-miterlimit="10" stroke-dasharray="" stroke-dashoffset="0" font-family="none" font-weight="none" font-size="none" text-anchor="none" style="mix-blend-mode: normal" data-fill-palette-color="primary" opacity="1"></path><path xmlns="http://www.w3.org/2000/svg" d="M9.25 40h12.1v-3.95h-3.65v-27.1h7.75v3.75h3.95v-7.7h-27.65v7.7h3.95v-3.75h7.85v27.1h-4.3zM32.9 40h12.1v-3.95h-5.7v-11.65h2.1c0.467 0 0.827-0.01 1.08-0.03 0.247-0.013 0.603-0.02 1.07-0.02v0l7.35 15.65h7.3v-3.95h-4.7l-5.6-12c2.4-0.533 4.227-1.633 5.48-3.3 1.247-1.667 1.87-3.75 1.87-6.25v0c0-1.7-0.4-3.15-1.2-4.35-0.8-1.2-1.8-2.183-3-2.95v0c-1.2-0.767-2.49-1.327-3.87-1.68-1.387-0.347-2.647-0.52-3.78-0.52v0h-10.5v3.95h2.25v27.1h-2.25zM39.3 20.4v-11.45h4.4c1.033 0 2.01 0.15 2.93 0.45 0.913 0.3 1.703 0.7 2.37 1.2v0c0.633 0.533 1.143 1.133 1.53 1.8 0.38 0.667 0.57 1.367 0.57 2.1v0c0 0.633-0.117 1.3-0.35 2-0.233 0.7-0.633 1.333-1.2 1.9v0c-0.567 0.567-1.323 1.04-2.27 1.42-0.953 0.387-2.163 0.58-3.63 0.58v0zM61.7 40h11.1v-3.95h-2.85c0.933-2.2 1.633-3.85 2.1-4.95 0.467-1.1 1.167-2.75 2.1-4.95v0h11c0.7 1.667 1.393 3.317 2.08 4.95 0.68 1.633 1.37 3.283 2.07 4.95v0h-2.8v3.95h11.1v-3.95h-4.1c-2.3-5.5-4.607-10.943-6.92-16.33-2.32-5.38-4.63-10.82-6.93-16.32v0c-2.3 5.5-4.607 10.94-6.92 16.32-2.32 5.387-4.63 10.83-6.93 16.33v0h-4.1zM79.1 14.25v0c0.033-0.1 0.093-0.267 0.18-0.5 0.08-0.233 0.187-0.617 0.32-1.15v0l0.5 1.65 3.35 7.95h-7.6c0.467-1.167 0.977-2.46 1.53-3.88 0.547-1.413 1.12-2.77 1.72-4.07zM128.05 37.9v0l-2.25-3.3c-1.033 0.6-2.123 1.057-3.27 1.37-1.153 0.32-2.347 0.48-3.58 0.48v0c-1.9 0-3.673-0.367-5.32-1.1-1.653-0.733-3.097-1.733-4.33-3v0c-1.267-1.233-2.257-2.7-2.97-4.4-0.72-1.7-1.08-3.5-1.08-5.4v0c0-1.9 0.36-3.7 1.08-5.4 0.713-1.7 1.703-3.2 2.97-4.5v0c1.233-1.267 2.677-2.267 4.33-3 1.647-0.733 3.42-1.1 5.32-1.1v0c0.9 0 1.783 0.09 2.65 0.27 0.867 0.187 1.717 0.463 2.55 0.83v0 3.05h3.95v-5.6c-1.367-0.8-2.807-1.417-4.32-1.85-1.52-0.433-3.13-0.65-4.83-0.65v0c-2.467 0-4.783 0.473-6.95 1.42-2.167 0.953-4.05 2.23-5.65 3.83v0c-1.633 1.633-2.917 3.54-3.85 5.72-0.933 2.187-1.4 4.513-1.4 6.98v0c0 2.467 0.467 4.783 1.4 6.95 0.933 2.167 2.217 4.05 3.85 5.65v0c1.6 1.633 3.483 2.917 5.65 3.85 2.167 0.933 4.483 1.4 6.95 1.4v0c1.7 0 3.31-0.227 4.83-0.68 1.513-0.447 2.937-1.053 4.27-1.82zM131.6 40h12.1v-3.95h-4.1v-11.25l3.1-2.95c1.867 2.4 3.727 4.773 5.58 7.12 1.847 2.353 3.72 4.713 5.62 7.08v0h-2.6v3.95h11.1v-3.95h-3.6c-2.233-2.833-4.457-5.643-6.67-8.43-2.22-2.78-4.447-5.587-6.68-8.42v0l10.75-10.25h4.15v-3.95h-11.1v3.95h1.85l-10.7 10.2-0.95 1.15c0.033-0.267 0.067-0.533 0.1-0.8 0.033-0.267 0.05-0.533 0.05-0.8v0-9.75h3.1v-3.95h-11.1v3.95h3.85v27.1h-3.85zM165.9 40h25.05v-7.7h-3.95v3.75h-14.15v-11.7h15.45v-3.95h-15.45v-11.45h13.45v3.75h3.95v-7.7h-24.35v3.95h2.8v27.1h-2.8zM194.45 40h12.1v-3.95h-5.7v-11.65h2.1c0.467 0 0.827-0.01 1.08-0.03 0.247-0.013 0.603-0.02 1.07-0.02v0l7.35 15.65h7.3v-3.95h-4.7l-5.6-12c2.4-0.533 4.227-1.633 5.48-3.3 1.247-1.667 1.87-3.75 1.87-6.25v0c0-1.7-0.4-3.15-1.2-4.35-0.8-1.2-1.8-2.183-3-2.95v0c-1.2-0.767-2.49-1.327-3.87-1.68-1.387-0.347-2.647-0.52-3.78-0.52v0h-10.5v3.95h2.25v27.1h-2.25zM200.85 20.4v-11.45h4.4c1.033 0 2.01 0.15 2.93 0.45 0.913 0.3 1.703 0.7 2.37 1.2v0c0.633 0.533 1.143 1.133 1.53 1.8 0.38 0.667 0.57 1.367 0.57 2.1v0c0 0.633-0.117 1.3-0.35 2-0.233 0.7-0.633 1.333-1.2 1.9v0c-0.567 0.567-1.323 1.04-2.27 1.42-0.953 0.387-2.163 0.58-3.63 0.58v0z" fill="#ffffff" fill-rule="nonzero" stroke="none" stroke-width="1" stroke-linecap="butt" stroke-linejoin="miter" stroke-miterlimit="10" stroke-dasharray="" stroke-dashoffset="0" font-family="none" font-weight="none" font-size="none" text-anchor="none" style="mix-blend-mode: normal" data-fill-palette-color="primary" opacity="1"></path></g></svg></g></svg></g></svg></g></svg></g><g transform="matrix(1,0,0,1,0,0.36286238532109394)"><svg viewBox="0 0 74.64453796745912 145.14495412844036" height="145.14495412844036" width="74.64453796745912"><g><svg xmlns="http://www.w3.org/2000/svg" xmlns:xlink="http://www.w3.org/1999/xlink" version="1.1" x="0" y="0" viewBox="14.549825668334961 -22.95599937438965 60.393165588378906 117.43341827392578" enable-background="new 0 -25.366 100 125.366" xml:space="preserve" height="145.14495412844036" width="74.64453796745912" class="icon-icon-0" data-fill-palette-color="accent" id="icon-0"><g fill="#ffffff" data-fill-palette-color="accent"><circle cx="64.102" cy="-12.115" r="11" fill="#ffffff" data-fill-palette-color="accent"></circle><path d="M53.513 45.312C53.513 45.312 53.531 45.235 53.513 45.312L53.513 45.312z" fill="#ffffff" data-fill-palette-color="accent"></path><path d="M53.513 45.312c1.404-5.875 2.369-11.886 3.548-17.811l1.356 5.444c1.179 4.728 8.25 5.887 9.142-0.108 0.617-1.544 0.84-3.383 1.239-4.993 1.181-4.755 2.36-9.51 3.541-14.265 1.455-5.867-7.642-8.125-9.099-2.258l-0.274 1.108c-0.466-3.556-0.441-5.784-1.162-8.676-1.424-5.714-9.757-7.878-14.342-4.516l1.509-4.561c3.957-11.955-14.584-18.091-18.54-6.136L19.505 21.555c-3.182 9.609 9.308 17.206 16.354 9.791-1.948 10.767-3.896 21.534-5.845 32.301-0.614 3.396-2.725 5.495-4.778 8.309-3.196 4.379-6.392 8.759-9.588 13.138-2.46 3.373-0.573 8.334 3.532 9.19 2.943 0.613 5.047-1.069 6.65-3.266 3.41-4.672 6.819-9.344 10.229-14.016 2.44-3.344 4.498-5.811 5.245-9.939 0.874-4.833 1.749-9.666 2.623-14.498l17.354 38.562c3.106 6.903 13.775 2.063 10.686-4.809L53.513 45.312z" fill="#ffffff" data-fill-palette-color="accent"></path></g></svg></g></svg></g></svg></g><defs></defs></svg><rect width="395.52" height="113.5916816594693" fill="none" stroke="none" visibility="hidden"></rect></g></svg></g></svg>