<svg xmlns="http://www.w3.org/2000/svg" version="1.1" xmlns:xlink="http://www.w3.org/1999/xlink" xmlns:svgjs="http://svgjs.dev/svgjs" width="1000" height="1000" viewBox="0 0 1000 1000"><rect width="1000" height="1000" fill="#ffffff"></rect><g transform="matrix(0.7,0,0,0.7,149.57575757575756,339.86289695422175)"><svg viewBox="0 0 396 181" data-background-color="#8abe53" preserveAspectRatio="xMidYMid meet" height="457" width="1000" xmlns="http://www.w3.org/2000/svg" xmlns:xlink="http://www.w3.org/1999/xlink"><g id="tight-bounds" transform="matrix(1,0,0,1,0.2400000000000091,0.10586324253162616)"><svg viewBox="0 0 395.52 180.78827351493675" height="180.78827351493675" width="395.52"><g><svg viewBox="0 0 395.52 180.78827351493675" height="180.78827351493675" width="395.52"><g transform="matrix(1,0,0,1,0,146.07596971746838)"><svg viewBox="0 0 395.52 34.71230379746836" height="34.71230379746836" width="395.52"><g id="textblocktransform"><svg viewBox="0 0 395.52 34.71230379746836" height="34.71230379746836" width="395.52" id="textblock"><g><svg viewBox="0 0 395.52 34.71230379746836" height="34.71230379746836" width="395.52"><g transform="matrix(1,0,0,1,0,0)"><svg width="395.52" viewBox="3.5 -35.70000076293945 414.7200012207031 36.400001525878906" height="34.71230379746836" data-palette-color="#4d7e3e"><path d="M19.5-35Q24.25-35 27.75-33.43 31.25-31.85 33.15-28.93 35.05-26 35.05-22.05L35.05-22.05Q35.05-18.1 33.15-15.2 31.25-12.3 27.75-10.73 24.25-9.15 19.5-9.15L19.5-9.15 13.4-9.15 13.4 0 3.5 0 3.5-35 19.5-35ZM18.9-16.95Q21.95-16.95 23.5-18.28 25.05-19.6 25.05-22.05L25.05-22.05Q25.05-24.5 23.5-25.85 21.95-27.2 18.9-27.2L18.9-27.2 13.4-27.2 13.4-16.95 18.9-16.95ZM55.85-35.7Q60.8-35.7 64.57-33.73 68.35-31.75 70.42-27.98 72.5-24.2 72.5-18.9L72.5-18.9 72.5 0 62.6 0 62.6-7.75 48.95-7.75 48.95 0 39.2 0 39.2-18.9Q39.2-24.2 41.27-27.98 43.35-31.75 47.12-33.73 50.9-35.7 55.85-35.7L55.85-35.7ZM48.95-15.4L62.6-15.4 62.6-19.75Q62.6-23.6 60.75-25.55 58.9-27.5 55.8-27.5L55.8-27.5Q52.65-27.5 50.8-25.55 48.95-23.6 48.95-19.75L48.95-19.75 48.95-15.4ZM96.65 0.7Q91.15 0.7 86.77-1.63 82.4-3.95 79.9-8.1 77.4-12.25 77.4-17.5L77.4-17.5Q77.4-22.75 79.9-26.9 82.4-31.05 86.77-33.38 91.15-35.7 96.65-35.7L96.65-35.7Q101.45-35.7 105.3-34 109.15-32.3 111.7-29.1L111.7-29.1 105.4-23.4Q102-27.5 97.15-27.5L97.15-27.5Q94.3-27.5 92.07-26.25 89.85-25 88.62-22.73 87.4-20.45 87.4-17.5L87.4-17.5Q87.4-14.55 88.62-12.28 89.85-10 92.07-8.75 94.3-7.5 97.15-7.5L97.15-7.5Q102-7.5 105.4-11.6L105.4-11.6 111.7-5.9Q109.15-2.7 105.3-1 101.45 0.7 96.65 0.7L96.65 0.7ZM139.59 0L129.59-12.7 125.89-8.75 125.89 0 116.09 0 116.09-35 125.89-35 125.89-20.45 139.44-35 150.34-35 136.04-19.5 151.09 0 139.59 0ZM198.44-31.2L195.14-24Q190.74-26.45 186.19-27.25L186.19-27.25 186.19 0 176.29 0 176.29-27.25Q171.64-26.45 167.34-24L167.34-24 164.04-31.2Q167.69-33.4 172.11-34.55 176.54-35.7 181.24-35.7L181.24-35.7Q185.94-35.7 190.36-34.55 194.79-33.4 198.44-31.2L198.44-31.2ZM222.89 0L216.54-9.3 211.14-9.3 211.14 0 201.24 0 201.24-35 217.24-35Q221.99-35 225.49-33.43 228.99-31.85 230.89-28.93 232.79-26 232.79-22.05L232.79-22.05Q232.79-18.25 231.01-15.43 229.24-12.6 225.94-11L225.94-11 233.49 0 222.89 0ZM222.79-22.05Q222.79-24.5 221.24-25.85 219.69-27.2 216.64-27.2L216.64-27.2 211.14-27.2 211.14-16.95 216.64-16.95Q219.69-16.95 221.24-18.28 222.79-19.6 222.79-22.05L222.79-22.05ZM254.58-35.7Q259.53-35.7 263.31-33.73 267.08-31.75 269.16-27.98 271.23-24.2 271.23-18.9L271.23-18.9 271.23 0 261.33 0 261.33-7.75 247.68-7.75 247.68 0 237.93 0 237.93-18.9Q237.93-24.2 240.01-27.98 242.08-31.75 245.86-33.73 249.63-35.7 254.58-35.7L254.58-35.7ZM247.68-15.4L261.33-15.4 261.33-19.75Q261.33-23.6 259.48-25.55 257.63-27.5 254.53-27.5L254.53-27.5Q251.38-27.5 249.53-25.55 247.68-23.6 247.68-19.75L247.68-19.75 247.68-15.4ZM295.38 0.7Q289.88 0.7 285.5-1.63 281.13-3.95 278.63-8.1 276.13-12.25 276.13-17.5L276.13-17.5Q276.13-22.75 278.63-26.9 281.13-31.05 285.5-33.38 289.88-35.7 295.38-35.7L295.38-35.7Q300.18-35.7 304.03-34 307.88-32.3 310.43-29.1L310.43-29.1 304.13-23.4Q300.73-27.5 295.88-27.5L295.88-27.5Q293.03-27.5 290.81-26.25 288.58-25 287.36-22.73 286.13-20.45 286.13-17.5L286.13-17.5Q286.13-14.55 287.36-12.28 288.58-10 290.81-8.75 293.03-7.5 295.88-7.5L295.88-7.5Q300.73-7.5 304.13-11.6L304.13-11.6 310.43-5.9Q307.88-2.7 304.03-1 300.18 0.7 295.38 0.7L295.38 0.7ZM338.33 0L328.33-12.7 324.63-8.75 324.63 0 314.83 0 314.83-35 324.63-35 324.63-20.45 338.18-35 349.08-35 334.78-19.5 349.83 0 338.33 0ZM379.03-9.95L382.03-2.65Q379.32-1.1 375.48-0.2 371.63 0.7 367.48 0.7L367.48 0.7Q361.88 0.7 357.95-0.65 354.03-2 352.05-4.4 350.07-6.8 350.07-9.95L350.07-9.95Q350.07-12.7 351.57-14.8 353.07-16.9 355.73-18.05L355.73-18.05Q353.68-19.1 352.6-20.98 351.53-22.85 351.53-25.1L351.53-25.1Q351.53-28 353.35-30.4 355.18-32.8 358.93-34.25 362.68-35.7 368.18-35.7L368.18-35.7Q371.63-35.7 374.98-35.05 378.32-34.4 380.88-33.3L380.88-33.3 378.18-25.9Q373.53-27.95 368.57-27.95L368.57-27.95Q365.03-27.95 363.28-27.03 361.53-26.1 361.53-24.45L361.53-24.45Q361.53-21.45 365.88-21.45L365.88-21.45 375.78-21.45 375.78-13.9 365.23-13.9Q362.68-13.9 361.38-13.08 360.07-12.25 360.07-10.65L360.07-10.65Q360.07-8.95 361.98-8 363.88-7.05 367.88-7.05L367.88-7.05Q370.73-7.05 373.75-7.83 376.78-8.6 379.03-9.95L379.03-9.95ZM407.62 0L401.27-9.3 395.87-9.3 395.87 0 385.97 0 385.97-35 401.97-35Q406.72-35 410.22-33.43 413.72-31.85 415.62-28.93 417.52-26 417.52-22.05L417.52-22.05Q417.52-18.25 415.75-15.43 413.97-12.6 410.67-11L410.67-11 418.22 0 407.62 0ZM407.52-22.05Q407.52-24.5 405.97-25.85 404.42-27.2 401.37-27.2L401.37-27.2 395.87-27.2 395.87-16.95 401.37-16.95Q404.42-16.95 405.97-18.28 407.52-19.6 407.52-22.05L407.52-22.05Z" opacity="1" transform="matrix(1,0,0,1,0,0)" fill="#000000" class="undefined-text-0" data-fill-palette-color="primary" id="text-0"></path></svg></g></svg></g></svg></g></svg></g><g transform="matrix(1,0,0,1,134.96544243037974,0)"><svg viewBox="0 0 125.58911513924052 125.58911513924052" height="125.58911513924052" width="125.58911513924052"><g><svg viewBox="0 0 125.58911513924052 125.58911513924052" height="125.58911513924052" width="125.58911513924052"><g transform="matrix(1,0,0,1,47.57115122594864,33.19291925022857)"><svg viewBox="0 0 30.44681268734324 59.20327663878338" height="59.20327663878338" width="30.44681268734324"><g><svg xmlns="http://www.w3.org/2000/svg" xmlns:xlink="http://www.w3.org/1999/xlink" version="1.1" x="0" y="0" viewBox="14.549825668334961 -22.95599937438965 60.393165588378906 117.43341827392578" enable-background="new 0 -25.366 100 125.366" xml:space="preserve" height="59.20327663878338" width="30.44681268734324" class="icon-s-0" data-fill-palette-color="accent" id="s-0"><g fill="#4d7e3e" data-fill-palette-color="accent"><circle cx="64.102" cy="-12.115" r="11" fill="#000000" data-fill-palette-color="accent"></circle><path d="M53.513 45.312C53.513 45.312 53.531 45.235 53.513 45.312L53.513 45.312z" fill="#000000" data-fill-palette-color="accent"></path><path d="M53.513 45.312c1.404-5.875 2.369-11.886 3.548-17.811l1.356 5.444c1.179 4.728 8.25 5.887 9.142-0.108 0.617-1.544 0.84-3.383 1.239-4.993 1.181-4.755 2.36-9.51 3.541-14.265 1.455-5.867-7.642-8.125-9.099-2.258l-0.274 1.108c-0.466-3.556-0.441-5.784-1.162-8.676-1.424-5.714-9.757-7.878-14.342-4.516l1.509-4.561c3.957-11.955-14.584-18.091-18.54-6.136L19.505 21.555c-3.182 9.609 9.308 17.206 16.354 9.791-1.948 10.767-3.896 21.534-5.845 32.301-0.614 3.396-2.725 5.495-4.778 8.309-3.196 4.379-6.392 8.759-9.588 13.138-2.46 3.373-0.573 8.334 3.532 9.19 2.943 0.613 5.047-1.069 6.65-3.266 3.41-4.672 6.819-9.344 10.229-14.016 2.44-3.344 4.498-5.811 5.245-9.939 0.874-4.833 1.749-9.666 2.623-14.498l17.354 38.562c3.106 6.903 13.775 2.063 10.686-4.809L53.513 45.312z" fill="#000000" data-fill-palette-color="accent"></path></g></svg></g></svg></g><g><path d="M14.479 82.084C14.773 82.927 14.889 83.705 14.827 84.418 14.768 85.138 14.535 85.755 14.129 86.271 13.732 86.79 13.184 87.172 12.486 87.415V87.415C11.787 87.659 11.121 87.701 10.487 87.541 9.854 87.388 9.291 87.048 8.797 86.522 8.305 86.002 7.912 85.32 7.618 84.477V84.477L7.052 82.854 4.618 83.703 3.703 81.08 12.997 77.838ZM9.629 83.596C9.818 84.137 10.077 84.505 10.406 84.701 10.74 84.888 11.123 84.906 11.557 84.754V84.754C11.991 84.603 12.281 84.35 12.425 83.996 12.568 83.636 12.545 83.186 12.356 82.645V82.645L11.846 81.182 9.119 82.133ZM20.006 92.464C20.504 93.245 20.785 94.034 20.85 94.83 20.924 95.628 20.767 96.38 20.379 97.085 19.989 97.8 19.375 98.424 18.538 98.957V98.957L14.054 101.815 12.556 99.463 14.393 98.292 12.331 95.056 10.494 96.227 9.017 93.909 13.5 91.052C14.338 90.518 15.161 90.223 15.97 90.166 16.776 90.118 17.524 90.293 18.213 90.692 18.907 91.087 19.505 91.678 20.006 92.464ZM14.151 93.896L16.214 97.132 17.242 96.477C17.849 96.09 18.214 95.652 18.337 95.163 18.459 94.674 18.363 94.182 18.048 93.688V93.688C17.733 93.194 17.328 92.899 16.833 92.803 16.338 92.708 15.786 92.854 15.18 93.241V93.241ZM21.38 109.667C20.628 108.959 20.105 108.164 19.81 107.282 19.51 106.405 19.456 105.521 19.646 104.629 19.841 103.742 20.276 102.939 20.952 102.221V102.221C21.624 101.508 22.397 101.028 23.271 100.78 24.149 100.537 25.038 100.536 25.936 100.778 26.829 101.025 27.652 101.502 28.404 102.21V102.21C29.059 102.827 29.538 103.498 29.843 104.225 30.152 104.955 30.273 105.701 30.207 106.462V106.462L27.823 106.413C27.882 105.417 27.582 104.608 26.923 103.987V103.987C26.535 103.621 26.108 103.38 25.643 103.262 25.177 103.143 24.716 103.162 24.259 103.317 23.796 103.468 23.376 103.744 22.997 104.147V104.147C22.617 104.549 22.367 104.986 22.244 105.456 22.117 105.922 22.123 106.386 22.264 106.848 22.41 107.306 22.677 107.717 23.065 108.083V108.083C23.725 108.704 24.552 108.953 25.548 108.828V108.828L25.732 111.213C24.977 111.325 24.225 111.248 23.477 110.983 22.734 110.723 22.035 110.284 21.38 109.667ZM34.543 118.635L33.892 114.134 32.424 114.581 31.198 116.712 28.816 115.343 33.723 106.808 36.105 108.178 34.068 111.722 39.415 110.081 42.075 111.611 36.411 113.381 37.35 120.249ZM58.755 116.744L57.507 118.583C56.768 117.994 55.989 117.558 55.172 117.273V117.273L53.916 124.835 51.165 124.378 52.421 116.816C51.536 116.818 50.658 116.979 49.788 117.301V117.301L49.202 115.157C49.947 114.862 50.748 114.674 51.605 114.594 52.455 114.519 53.314 114.553 54.182 114.698V114.698C55.056 114.843 55.883 115.088 56.663 115.434 57.448 115.788 58.146 116.224 58.755 116.744ZM67.966 125.329L66.067 122.789 64.549 122.854 64.661 125.47 61.885 125.589 61.465 115.754 65.958 115.562C66.85 115.524 67.628 115.637 68.293 115.902 68.965 116.167 69.489 116.568 69.865 117.105 70.248 117.636 70.455 118.27 70.487 119.009V119.009C70.517 119.721 70.377 120.351 70.067 120.898 69.757 121.438 69.299 121.871 68.692 122.197V122.197L70.942 125.202ZM67.671 119.13C67.651 118.67 67.493 118.32 67.196 118.08 66.892 117.839 66.454 117.731 65.882 117.756V117.756L64.334 117.822 64.457 120.708 66.005 120.641C66.577 120.617 67.005 120.475 67.287 120.216 67.563 119.951 67.691 119.589 67.671 119.13ZM77.744 113.221C78.634 112.967 79.47 112.923 80.252 113.088 81.038 113.244 81.714 113.609 82.279 114.183 82.852 114.76 83.275 115.526 83.548 116.481V116.481L85.006 121.594 82.325 122.359 81.727 120.264 78.037 121.317 78.634 123.412 75.992 124.166 74.533 119.053C74.261 118.098 74.213 117.225 74.389 116.433 74.573 115.646 74.954 114.98 75.533 114.434 76.11 113.881 76.847 113.477 77.744 113.221ZM77.445 119.241L81.135 118.188 80.801 117.015C80.603 116.323 80.288 115.849 79.854 115.591 79.42 115.334 78.921 115.286 78.358 115.447V115.447C77.794 115.608 77.396 115.912 77.163 116.359 76.93 116.807 76.913 117.376 77.11 118.068V118.068ZM94.623 116.813C93.73 117.332 92.818 117.606 91.889 117.637 90.962 117.674 90.099 117.474 89.299 117.037 88.504 116.597 87.859 115.951 87.364 115.098V115.098C86.873 114.251 86.633 113.373 86.645 112.465 86.663 111.553 86.916 110.701 87.404 109.91 87.895 109.124 88.588 108.472 89.481 107.953V107.953C90.259 107.502 91.039 107.234 91.822 107.149 92.611 107.061 93.36 107.158 94.07 107.439V107.439L93.343 109.71C92.405 109.368 91.544 109.425 90.761 109.88V109.88C90.3 110.147 89.946 110.487 89.7 110.9 89.454 111.312 89.34 111.759 89.358 112.242 89.371 112.728 89.516 113.21 89.793 113.688V113.688C90.071 114.166 90.417 114.532 90.833 114.783 91.243 115.038 91.69 115.164 92.173 115.161 92.653 115.152 93.124 115.014 93.585 114.746V114.746C94.369 114.291 94.843 113.569 95.008 112.58V112.58L97.346 113.083C97.238 113.84 96.95 114.538 96.482 115.179 96.021 115.817 95.401 116.362 94.623 116.813ZM106.976 106.759L102.475 106.098 102.485 107.632 104.178 109.415 102.185 111.308 95.406 104.169 97.399 102.277 100.214 105.241 100.168 99.648 102.393 97.535 102.473 103.468 109.324 104.529ZM113.88 93.075L116.057 93.499C116.022 94.083 115.873 94.724 115.61 95.421 115.357 96.117 115.015 96.789 114.584 97.439V97.439C114.006 98.311 113.407 98.985 112.787 99.461 112.171 99.932 111.571 100.198 110.987 100.258 110.409 100.322 109.873 100.191 109.378 99.863V99.863C108.945 99.576 108.644 99.204 108.475 98.748 108.302 98.297 108.265 97.805 108.363 97.271V97.271C107.983 97.482 107.593 97.576 107.194 97.551 106.786 97.528 106.404 97.398 106.048 97.163V97.163C105.599 96.864 105.281 96.446 105.095 95.906 104.911 95.377 104.9 94.742 105.062 94.002 105.221 93.268 105.586 92.471 106.157 91.61V91.61C106.514 91.072 106.916 90.575 107.362 90.119 107.818 89.661 108.264 89.29 108.701 89.004V89.004L110.014 90.786C109.209 91.3 108.549 91.946 108.034 92.723V92.723C107.665 93.278 107.463 93.74 107.427 94.107 107.391 94.475 107.503 94.746 107.764 94.919V94.919C108.231 95.228 108.689 95.044 109.138 94.367V94.367L110.679 92.043 112.453 93.22 110.813 95.693C110.547 96.093 110.412 96.435 110.408 96.72 110.399 97.01 110.52 97.238 110.77 97.404V97.404C111.036 97.58 111.342 97.571 111.687 97.376 112.036 97.176 112.418 96.762 112.834 96.135V96.135C113.129 95.69 113.372 95.192 113.563 94.639 113.753 94.086 113.859 93.565 113.88 93.075ZM120.994 83.767L117.908 84.497 117.362 85.915 119.806 86.855 118.809 89.448 109.621 85.914 111.235 81.717C111.556 80.883 111.97 80.215 112.478 79.71 112.988 79.2 113.565 78.879 114.208 78.748 114.847 78.608 115.511 78.671 116.202 78.937V78.937C116.867 79.193 117.389 79.572 117.767 80.074 118.138 80.574 118.353 81.167 118.41 81.853V81.853L122.063 80.987ZM115.19 81.567C114.761 81.402 114.377 81.408 114.038 81.584 113.696 81.767 113.423 82.126 113.217 82.661V82.661L112.661 84.107 115.357 85.143 115.913 83.698C116.118 83.163 116.159 82.714 116.034 82.352 115.901 81.994 115.619 81.732 115.19 81.567Z" fill="#000000" data-fill-palette-color="accent"></path><path d="M3.086 41.75C3.378 40.914 3.771 40.232 4.265 39.706 4.763 39.188 5.329 38.849 5.964 38.689 6.596 38.536 7.261 38.581 7.959 38.824V38.824C8.664 39.07 9.213 39.448 9.606 39.96 10.004 40.479 10.233 41.096 10.295 41.809 10.355 42.528 10.239 43.306 9.947 44.143V44.143L9.381 45.766 11.815 46.615 10.901 49.238 1.605 45.997ZM7.824 43.583C8.013 43.041 8.038 42.595 7.9 42.243 7.757 41.883 7.469 41.627 7.035 41.476V41.476C6.601 41.325 6.216 41.346 5.88 41.539 5.553 41.729 5.295 42.094 5.106 42.635V42.635L4.596 44.097 7.314 45.045ZM9.493 28.645C9.991 27.864 10.587 27.276 11.281 26.881 11.97 26.482 12.72 26.309 13.533 26.36 14.336 26.414 15.156 26.707 15.993 27.241V27.241L20.478 30.097 18.985 32.441 17.147 31.27 15.08 34.515 16.917 35.686 15.446 37.995 10.962 35.138C10.124 34.605 9.512 33.986 9.124 33.28 8.734 32.566 8.574 31.812 8.644 31.019 8.709 30.223 8.992 29.432 9.493 28.645ZM13.268 33.361L15.335 30.115 14.298 29.455C13.691 29.068 13.14 28.923 12.645 29.018 12.146 29.119 11.741 29.414 11.43 29.903V29.903C11.115 30.397 11.019 30.889 11.141 31.378 11.261 31.873 11.624 32.313 12.231 32.7V32.7ZM26.881 23.981C26.129 24.689 25.305 25.164 24.407 25.406 23.513 25.652 22.627 25.654 21.748 25.411 20.874 25.163 20.099 24.681 19.423 23.963V23.963C18.751 23.25 18.318 22.45 18.123 21.562 17.933 20.671 17.988 19.786 18.287 18.909 18.582 18.027 19.106 17.232 19.858 16.524V16.524C20.512 15.907 21.211 15.469 21.954 15.208 22.697 14.947 23.449 14.871 24.21 14.979V14.979L24.018 17.355C23.027 17.236 22.202 17.487 21.542 18.109V18.109C21.149 18.479 20.883 18.89 20.742 19.343 20.596 19.801 20.587 20.262 20.715 20.728 20.837 21.198 21.088 21.635 21.467 22.037V22.037C21.851 22.445 22.274 22.724 22.736 22.874 23.193 23.029 23.655 23.048 24.12 22.93 24.581 22.816 25.007 22.574 25.4 22.204V22.204C26.06 21.583 26.36 20.774 26.3 19.778V19.778L28.684 19.729C28.746 20.495 28.625 21.24 28.32 21.967 28.016 22.693 27.536 23.364 26.881 23.981ZM38.343 15.781L34.121 14.093 33.773 15.573 34.998 17.704 32.616 19.074 27.709 10.54 30.092 9.17 32.129 12.714 33.401 7.267 36.053 5.743 34.742 11.523 41.15 14.167ZM57.12 1.272L56.546 3.424C55.655 3.106 54.777 2.942 53.91 2.93V2.93L55.167 10.492 52.417 10.949 51.16 3.388C50.324 3.682 49.546 4.122 48.826 4.707V4.707L47.577 2.859C48.186 2.339 48.884 1.905 49.67 1.558 50.449 1.206 51.273 0.958 52.14 0.813V0.813C53.014 0.668 53.877 0.636 54.728 0.718 55.585 0.791 56.382 0.976 57.12 1.272ZM67.643 10.096L65.967 7.403 64.45 7.338 64.338 9.954 61.562 9.835 61.983 0 66.476 0.192C67.362 0.23 68.127 0.41 68.774 0.731 69.413 1.058 69.901 1.503 70.237 2.064 70.567 2.625 70.716 3.275 70.684 4.014V4.014C70.653 4.726 70.46 5.341 70.105 5.86 69.756 6.372 69.266 6.764 68.634 7.037V7.037L70.618 10.223ZM67.878 3.894C67.898 3.434 67.767 3.072 67.485 2.806 67.209 2.548 66.785 2.406 66.212 2.382V2.382L64.665 2.316 64.542 5.191 66.089 5.257C66.662 5.282 67.096 5.177 67.393 4.943 67.697 4.703 67.859 4.353 67.878 3.894ZM81.165 2.6C82.056 2.854 82.79 3.258 83.367 3.81 83.945 4.356 84.326 5.026 84.508 5.82 84.686 6.605 84.639 7.475 84.367 8.429V8.429L82.908 13.542 80.236 12.78 80.834 10.685 77.134 9.63 76.536 11.725 73.903 10.974 75.361 5.861C75.634 4.906 76.052 4.142 76.618 3.569 77.191 2.991 77.868 2.623 78.648 2.464 79.429 2.299 80.268 2.345 81.165 2.6ZM77.723 7.563L81.423 8.619 81.761 7.437C81.958 6.745 81.94 6.175 81.708 5.727 81.469 5.278 81.07 4.974 80.513 4.815V4.815C79.949 4.654 79.45 4.702 79.017 4.96 78.577 5.215 78.258 5.689 78.06 6.381V6.381ZM90.598 17.935C89.704 17.417 89.014 16.762 88.526 15.97 88.034 15.184 87.78 14.335 87.762 13.424 87.75 12.515 87.991 11.635 88.486 10.782V10.782C88.978 9.935 89.621 9.291 90.416 8.851 91.216 8.414 92.08 8.214 93.006 8.251 93.935 8.282 94.847 8.557 95.74 9.075V9.075C96.518 9.527 97.138 10.072 97.599 10.709 98.061 11.347 98.349 12.046 98.463 12.805V12.805L96.13 13.3C95.962 12.317 95.486 11.597 94.702 11.142V11.142C94.235 10.871 93.765 10.733 93.29 10.727 92.81 10.718 92.365 10.841 91.955 11.097 91.539 11.348 91.193 11.713 90.915 12.192V12.192C90.634 12.676 90.488 13.161 90.475 13.646 90.457 14.129 90.571 14.576 90.817 14.989 91.057 15.398 91.411 15.738 91.877 16.009V16.009C92.661 16.464 93.522 16.52 94.46 16.179V16.179L95.187 18.45C94.471 18.727 93.722 18.824 92.939 18.739 92.156 18.655 91.375 18.387 90.598 17.935ZM101.728 26.579L102.141 22.051 100.624 22.14 98.93 23.922 96.938 22.03 103.717 14.892 105.709 16.784 102.895 19.748 108.478 19.413 110.695 21.519 104.781 21.912 104.076 28.809ZM112.193 35.856L110.955 37.696C110.431 37.436 109.898 37.049 109.358 36.536 108.816 36.032 108.33 35.455 107.899 34.806V34.806C107.321 33.934 106.933 33.12 106.735 32.364 106.541 31.613 106.53 30.957 106.701 30.396 106.867 29.838 107.197 29.395 107.691 29.067V29.067C108.119 28.784 108.578 28.651 109.07 28.669 109.552 28.685 110.018 28.839 110.468 29.132V29.132C110.425 28.705 110.491 28.31 110.665 27.947 110.849 27.585 111.116 27.288 111.466 27.056V27.056C111.921 26.754 112.433 26.622 113.002 26.661 113.562 26.697 114.151 26.934 114.769 27.372 115.383 27.804 115.976 28.45 116.547 29.311V29.311C116.904 29.849 117.203 30.415 117.443 31.007 117.689 31.595 117.859 32.146 117.952 32.66V32.66L115.8 33.176C115.64 32.235 115.303 31.378 114.792 30.606V30.606C114.423 30.051 114.077 29.685 113.752 29.509 113.427 29.333 113.134 29.331 112.873 29.504V29.504C112.407 29.813 112.398 30.307 112.848 30.984V30.984L114.389 33.308 112.615 34.485 110.974 32.011C110.709 31.611 110.444 31.351 110.18 31.23 109.92 31.115 109.665 31.14 109.415 31.306V31.306C109.149 31.482 109.038 31.768 109.083 32.161 109.132 32.561 109.363 33.071 109.775 33.693V33.693C110.074 34.143 110.44 34.563 110.875 34.954 111.311 35.345 111.75 35.646 112.193 35.856ZM113.879 46.78L115.681 44.171 115.136 42.753 112.692 43.692 111.695 41.099 120.883 37.566 122.497 41.764C122.815 42.591 122.956 43.365 122.919 44.086 122.873 44.803 122.66 45.427 122.279 45.959 121.896 46.485 121.359 46.88 120.669 47.146V47.146C120.004 47.402 119.363 47.47 118.745 47.35 118.137 47.234 117.582 46.941 117.079 46.47V46.47L114.948 49.56ZM119.661 44.525C120.09 44.36 120.37 44.095 120.502 43.73 120.629 43.374 120.59 42.929 120.384 42.394V42.394L119.828 40.948 117.141 41.981 117.697 43.427C117.903 43.962 118.172 44.319 118.505 44.498 118.847 44.681 119.232 44.69 119.661 44.525Z" fill="#000000" data-fill-palette-color="accent"></path><path d="M1.221 63.904C1.221 61.785 2.938 60.067 5.057 60.067 7.176 60.067 8.894 61.785 8.894 63.904 8.894 66.023 7.176 67.741 5.057 67.741 2.938 67.741 1.221 66.023 1.221 63.904ZM116.695 63.904C116.695 61.785 118.413 60.067 120.532 60.067 122.651 60.067 124.369 61.785 124.369 63.904 124.369 66.023 122.651 67.741 120.532 67.741 118.413 67.741 116.695 66.023 116.695 63.904Z" fill="#000000" data-fill-palette-color="accent"></path></g></svg></g></svg></g><g></g></svg></g><defs></defs></svg><rect width="395.52" height="180.78827351493675" fill="none" stroke="none" visibility="hidden"></rect></g></svg></g></svg>